<?xml version="1.0" standalone="no"?>
<!DOCTYPE svg PUBLIC "-//W3C//DTD SVG 20010904//EN"
 "http://www.w3.org/TR/2001/REC-SVG-20010904/DTD/svg10.dtd">
<svg version="1.0" xmlns="http://www.w3.org/2000/svg"
 width="700.000000pt" height="700.000000pt" viewBox="0 0 700.000000 700.000000"
 preserveAspectRatio="xMidYMid meet">
<metadata>
Created by potrace 1.11, written by Peter Selinger 2001-2013
</metadata>
<g transform="translate(0.000000,700.000000) scale(0.100000,-0.100000)"
fill="#000000" stroke="none">
<path d="M4374 6407 c-11 -24 -148 -289 -404 -782 -37 -71 -107 -206 -155
-300 -48 -93 -118 -228 -155 -300 -37 -71 -106 -204 -153 -295 -46 -91 -113
-219 -147 -285 -34 -66 -103 -199 -152 -295 -50 -96 -116 -224 -148 -285 -31
-60 -99 -191 -150 -290 -165 -321 -251 -488 -320 -620 -37 -71 -101 -195 -142
-275 -41 -80 -116 -225 -167 -323 -87 -167 -91 -177 -69 -179 13 0 28 -2 33
-3 6 -1 51 -5 100 -9 50 -4 104 -9 120 -11 36 -5 130 -14 205 -20 30 -3 78 -7
105 -10 28 -3 77 -8 110 -10 33 -3 76 -7 95 -10 19 -2 71 -7 115 -11 44 -3 91
-8 105 -9 70 -8 196 -19 204 -17 5 2 6 -4 2 -13 -4 -12 -340 -614 -744 -1335
-14 -25 -34 -60 -44 -78 -30 -55 -28 -53 222 178 165 153 236 217 250 230 9 8
62 56 116 107 55 50 111 102 125 115 14 13 72 66 129 118 56 52 112 103 124
113 12 10 68 63 126 117 58 54 115 107 126 117 12 10 72 65 134 123 62 58 122
113 134 123 11 10 62 56 111 102 50 46 102 94 116 106 14 13 72 67 128 119 57
52 116 106 131 120 89 82 226 209 253 235 l30 30 -34 6 c-19 4 -50 10 -69 13
-19 3 -57 10 -85 15 -27 5 -70 12 -95 16 -25 3 -56 8 -70 10 -40 8 -62 12
-110 20 -25 4 -52 9 -60 10 -8 2 -89 15 -180 30 -91 15 -169 28 -175 29 -5 1
-90 15 -187 31 -98 16 -178 32 -178 35 0 3 51 67 113 141 61 74 126 152 142
174 17 21 35 43 40 49 10 10 181 216 250 301 18 22 84 101 145 175 62 74 127
153 145 175 18 22 83 101 145 175 62 74 127 153 145 175 18 22 49 60 69 83 20
24 36 47 36 50 0 4 -7 35 -15 69 -8 34 -17 77 -20 94 -3 18 -8 35 -10 39 -2 3
-6 17 -9 31 -2 13 -10 47 -16 74 -6 28 -13 57 -15 65 -2 8 -26 114 -54 235
-28 121 -53 229 -55 240 -2 11 -13 58 -25 105 -11 47 -36 155 -56 240 -19 85
-49 214 -66 285 -17 72 -32 139 -35 150 -2 11 -6 29 -8 40 -2 11 -18 81 -36
155 -17 74 -33 142 -35 150 -2 8 -4 23 -4 33 -1 24 -14 21 -27 -6z"/>
<path d="M2170 4046 c0 -907 2 -1647 4 -1645 2 2 137 270 301 594 164 325 370
732 458 907 l161 316 -174 279 c-96 153 -192 307 -215 343 -50 77 -213 338
-236 377 -9 16 -54 87 -99 158 -46 72 -90 142 -99 158 -9 15 -35 58 -58 95
l-43 67 0 -1649z"/>
</g>
</svg>
