<svg width="128" height="17" viewBox="0 0 128 17" fill="none" xmlns="http://www.w3.org/2000/svg">
<path d="M3.952 13.128C3.152 13.128 2.496 12.9787 1.984 12.68C1.536 12.424 1.18933 12.0773 0.944 11.64C0.869333 11.512 0.805333 11.3787 0.752 11.24L2.432 10.632C2.50667 10.8027 2.60267 10.9467 2.72 11.064C3.008 11.352 3.41867 11.496 3.952 11.496C4.53867 11.496 4.95467 11.368 5.2 11.112C5.328 10.984 5.39733 10.824 5.408 10.632C5.39733 10.4933 5.36 10.36 5.296 10.232C5.2 10.072 5.06667 9.944 4.896 9.848C4.66133 9.70933 4.24533 9.61333 3.648 9.56C2.944 9.496 2.40533 9.35733 2.032 9.144C1.65867 8.92 1.36 8.616 1.136 8.232C0.901333 7.82667 0.784 7.37867 0.784 6.888C0.784 6.45067 0.88 6.06667 1.072 5.736C1.27467 5.384 1.568 5.096 1.952 4.872C2.51733 4.552 3.216 4.392 4.048 4.392C4.848 4.392 5.504 4.54133 6.016 4.84C6.464 5.096 6.81067 5.44267 7.056 5.88C7.13067 6.008 7.19467 6.14133 7.248 6.28L5.568 6.888C5.49333 6.71733 5.39733 6.57333 5.28 6.456C4.992 6.168 4.58133 6.024 4.048 6.024C3.46133 6.024 3.04533 6.152 2.8 6.408C2.672 6.536 2.60267 6.696 2.592 6.888C2.60267 7.02667 2.64 7.16 2.704 7.288C2.8 7.448 2.93333 7.576 3.104 7.672C3.33867 7.81067 3.75467 7.90667 4.352 7.96C5.056 8.024 5.59467 8.168 5.968 8.392C6.34133 8.60533 6.64 8.904 6.864 9.288C7.09867 9.69333 7.216 10.1413 7.216 10.632C7.216 11.0693 7.12 11.4533 6.928 11.784C6.72533 12.136 6.432 12.424 6.048 12.648C5.48267 12.968 4.784 13.128 3.952 13.128ZM13.152 13.128C12.6187 13.128 12.1547 13.016 11.76 12.792C11.3653 12.5573 11.04 12.2267 10.784 11.8C10.4533 11.224 10.288 10.5093 10.288 9.656V6.152H8.784V4.52H10.288V1.24H12.112V4.52H14.384V6.152H12.112V9.656C12.1013 10.2213 12.1973 10.6747 12.4 11.016C12.496 11.1867 12.6187 11.3147 12.768 11.4C12.8747 11.464 13.0027 11.496 13.152 11.496C13.3013 11.496 13.4347 11.464 13.552 11.4C13.7013 11.3147 13.8293 11.176 13.936 10.984C14.0853 10.728 14.176 10.4133 14.208 10.04L15.952 10.52C15.8773 11 15.728 11.4213 15.504 11.784C15.2587 12.2213 14.9333 12.5573 14.528 12.792C14.1333 13.016 13.6747 13.128 13.152 13.128ZM19.152 13.128C18.64 13.128 18.2027 13.0267 17.84 12.824C17.4987 12.6213 17.232 12.3493 17.04 12.008C16.7947 11.592 16.672 11.096 16.672 10.52C16.672 9.99733 16.7787 9.55467 16.992 9.192C17.216 8.79733 17.5467 8.472 17.984 8.216C18.6027 7.864 19.3813 7.688 20.32 7.688H21.392V7.256C21.3813 7.01067 21.328 6.808 21.232 6.648C21.136 6.47733 20.9973 6.33867 20.816 6.232C20.5813 6.09333 20.288 6.024 19.936 6.024C19.5947 6.024 19.312 6.09333 19.088 6.232C18.896 6.33867 18.7467 6.48267 18.64 6.664C18.5653 6.792 18.5173 6.92533 18.496 7.064L16.768 6.6C16.8107 6.33333 16.9067 6.07733 17.056 5.832C17.3013 5.40533 17.632 5.07467 18.048 4.84C18.56 4.54133 19.1947 4.392 19.952 4.392C20.7093 4.392 21.3493 4.54133 21.872 4.84C22.288 5.08533 22.6133 5.40533 22.848 5.8C23.0827 6.216 23.2 6.70133 23.2 7.256V13H21.392V11.944C21.1573 12.3067 20.8693 12.5893 20.528 12.792C20.1227 13.016 19.664 13.128 19.152 13.128ZM19.76 11.496C20.1013 11.496 20.3947 11.4267 20.64 11.288C20.864 11.16 21.04 10.984 21.168 10.76C21.3067 10.504 21.3813 10.1947 21.392 9.832V9.32H20.32C19.7867 9.32 19.36 9.41067 19.04 9.592C18.8373 9.70933 18.6933 9.848 18.608 10.008C18.5333 10.1467 18.4907 10.3067 18.48 10.488C18.4907 10.68 18.5333 10.84 18.608 10.968C18.6827 11.1067 18.8 11.2187 18.96 11.304C19.1733 11.432 19.44 11.496 19.76 11.496ZM26.592 13V6.504H24.8V4.872H26.592V3.624C26.592 3.00533 26.7147 2.472 26.96 2.024C27.1733 1.66133 27.456 1.37867 27.808 1.176C28.1813 0.962666 28.6293 0.855999 29.152 0.855999C29.6747 0.855999 30.1227 0.962666 30.496 1.176C30.848 1.37867 31.1307 1.66667 31.344 2.04C31.4827 2.28533 31.584 2.552 31.648 2.84L29.92 3.32C29.8773 3.04267 29.7813 2.82933 29.632 2.68C29.4933 2.552 29.3333 2.488 29.152 2.488C28.9707 2.488 28.8213 2.54667 28.704 2.664C28.5013 2.86667 28.4 3.18667 28.4 3.624V4.872H30.88V6.504H28.4V13H26.592ZM34.592 13V6.504H32.8V4.872H34.592V3.624C34.592 3.00533 34.7147 2.472 34.96 2.024C35.1733 1.66133 35.456 1.37867 35.808 1.176C36.1813 0.962666 36.6293 0.855999 37.152 0.855999C37.6747 0.855999 38.1227 0.962666 38.496 1.176C38.848 1.37867 39.1307 1.66667 39.344 2.04C39.4827 2.28533 39.584 2.552 39.648 2.84L37.92 3.32C37.8773 3.04267 37.7813 2.82933 37.632 2.68C37.4933 2.552 37.3333 2.488 37.152 2.488C36.9707 2.488 36.8213 2.54667 36.704 2.664C36.5013 2.86667 36.4 3.18667 36.4 3.624V4.872H38.88V6.504H36.4V13H34.592ZM45.28 14.68C45.056 14.68 44.8693 14.6373 44.72 14.552C44.5387 14.4453 44.3787 14.2747 44.24 14.04C44.1013 13.8053 44.0053 13.5173 43.952 13.176C43.9093 13.2827 43.8613 13.3787 43.808 13.464C43.68 13.6987 43.52 13.8693 43.328 13.976C43.1787 14.0613 42.9867 14.104 42.752 14.104C42.4107 14.104 42.1013 14.024 41.824 13.864C41.5467 13.704 41.3173 13.4747 41.136 13.176C40.912 12.7813 40.8 12.2907 40.8 11.704V7.048C40.8 6.472 40.912 5.98133 41.136 5.576C41.3173 5.27733 41.5467 5.048 41.824 4.888C42.1013 4.728 42.4107 4.648 42.752 4.648C42.9867 4.648 43.1787 4.696 43.328 4.792C43.488 4.87733 43.632 5.016 43.76 5.208L43.872 4.776H44.816V12.28C44.816 12.7173 44.896 13.016 45.056 13.176C45.1093 13.24 45.1787 13.272 45.264 13.272C45.328 13.272 45.376 13.2507 45.408 13.208C45.5573 13.0587 45.632 12.7493 45.632 12.28V3.64C45.632 3.14933 45.536 2.73867 45.344 2.408C45.1947 2.16267 45.0027 1.97067 44.768 1.832C44.5333 1.69333 44.2507 1.624 43.92 1.624C43.6 1.624 43.3173 1.69333 43.072 1.832C42.8373 1.97067 42.6453 2.168 42.496 2.424C42.368 2.63733 42.2827 2.88267 42.24 3.16L40.72 2.824C40.784 2.41867 40.9173 2.04533 41.12 1.704C41.376 1.24533 41.728 0.888 42.176 0.631999C42.6667 0.354666 43.248 0.216 43.92 0.216C44.6027 0.216 45.1893 0.354666 45.68 0.631999C46.128 0.888 46.48 1.24 46.736 1.688C47.0453 2.232 47.2 2.88267 47.2 3.64V12.28C47.2 12.8667 47.088 13.3573 46.864 13.752C46.6827 14.0613 46.4533 14.2907 46.176 14.44C45.9093 14.6 45.6107 14.68 45.28 14.68ZM42.8 12.696C42.8853 12.696 42.9547 12.6693 43.008 12.616C43.168 12.456 43.248 12.152 43.248 11.704V7.048C43.248 6.6 43.168 6.296 43.008 6.136C42.9547 6.08267 42.8853 6.056 42.8 6.056C42.7253 6.056 42.6613 6.08267 42.608 6.136C42.448 6.296 42.368 6.6 42.368 7.048V11.704C42.368 12.152 42.448 12.456 42.608 12.616C42.6613 12.6693 42.7253 12.696 42.8 12.696ZM51.952 13.128C51.152 13.128 50.496 12.9787 49.984 12.68C49.536 12.424 49.1893 12.0773 48.944 11.64C48.8693 11.512 48.8053 11.3787 48.752 11.24L50.432 10.632C50.5067 10.8027 50.6027 10.9467 50.72 11.064C51.008 11.352 51.4187 11.496 51.952 11.496C52.5387 11.496 52.9547 11.368 53.2 11.112C53.328 10.984 53.3973 10.824 53.408 10.632C53.3973 10.4933 53.36 10.36 53.296 10.232C53.2 10.072 53.0667 9.944 52.896 9.848C52.6613 9.70933 52.2453 9.61333 51.648 9.56C50.944 9.496 50.4053 9.35733 50.032 9.144C49.6587 8.92 49.36 8.616 49.136 8.232C48.9013 7.82667 48.784 7.37867 48.784 6.888C48.784 6.45067 48.88 6.06667 49.072 5.736C49.2747 5.384 49.568 5.096 49.952 4.872C50.5173 4.552 51.216 4.392 52.048 4.392C52.848 4.392 53.504 4.54133 54.016 4.84C54.464 5.096 54.8107 5.44267 55.056 5.88C55.1307 6.008 55.1947 6.14133 55.248 6.28L53.568 6.888C53.4933 6.71733 53.3973 6.57333 53.28 6.456C52.992 6.168 52.5813 6.024 52.048 6.024C51.4613 6.024 51.0453 6.152 50.8 6.408C50.672 6.536 50.6027 6.696 50.592 6.888C50.6027 7.02667 50.64 7.16 50.704 7.288C50.8 7.448 50.9333 7.576 51.104 7.672C51.3387 7.81067 51.7547 7.90667 52.352 7.96C53.056 8.024 53.5947 8.168 53.968 8.392C54.3413 8.60533 54.64 8.904 54.864 9.288C55.0987 9.69333 55.216 10.1413 55.216 10.632C55.216 11.0693 55.12 11.4533 54.928 11.784C54.7253 12.136 54.432 12.424 54.048 12.648C53.4827 12.968 52.784 13.128 51.952 13.128ZM56.8 16.28V4.52H58.608V5.608C58.8533 5.192 59.1573 4.87733 59.52 4.664C59.84 4.48267 60.2133 4.392 60.64 4.392C61.0987 4.392 61.4987 4.49333 61.84 4.696C62.224 4.90933 62.5387 5.23467 62.784 5.672C63.1467 6.29067 63.328 7.08 63.328 8.04V9.48C63.328 10.44 63.1467 11.2293 62.784 11.848C62.5387 12.2853 62.224 12.6107 61.84 12.824C61.4987 13.0267 61.0987 13.128 60.64 13.128C60.2133 13.128 59.84 13.0373 59.52 12.856C59.1573 12.6427 58.8533 12.328 58.608 11.912V16.28H56.8ZM60.016 11.496C60.272 11.496 60.496 11.4373 60.688 11.32C60.9013 11.2027 61.0773 11.0213 61.216 10.776C61.408 10.4453 61.5093 10.0133 61.52 9.48V8.04C61.5093 7.50667 61.408 7.07467 61.216 6.744C61.0773 6.49867 60.9013 6.31733 60.688 6.2C60.496 6.08267 60.272 6.024 60.016 6.024C59.7813 6.024 59.5787 6.072 59.408 6.168C59.216 6.28533 59.0507 6.456 58.912 6.68C58.72 7.032 58.6187 7.48533 58.608 8.04V9.48C58.6187 10.0347 58.72 10.488 58.912 10.84C59.0507 11.064 59.216 11.2347 59.408 11.352C59.5787 11.448 59.7813 11.496 60.016 11.496ZM67.152 13.128C66.64 13.128 66.2027 13.0267 65.84 12.824C65.4987 12.6213 65.232 12.3493 65.04 12.008C64.7947 11.592 64.672 11.096 64.672 10.52C64.672 9.99733 64.7787 9.55467 64.992 9.192C65.216 8.79733 65.5467 8.472 65.984 8.216C66.6027 7.864 67.3813 7.688 68.32 7.688H69.392V7.256C69.3813 7.01067 69.328 6.808 69.232 6.648C69.136 6.47733 68.9973 6.33867 68.816 6.232C68.5813 6.09333 68.288 6.024 67.936 6.024C67.5947 6.024 67.312 6.09333 67.088 6.232C66.896 6.33867 66.7467 6.48267 66.64 6.664C66.5653 6.792 66.5173 6.92533 66.496 7.064L64.768 6.6C64.8107 6.33333 64.9067 6.07733 65.056 5.832C65.3013 5.40533 65.632 5.07467 66.048 4.84C66.56 4.54133 67.1947 4.392 67.952 4.392C68.7093 4.392 69.3493 4.54133 69.872 4.84C70.288 5.08533 70.6133 5.40533 70.848 5.8C71.0827 6.216 71.2 6.70133 71.2 7.256V13H69.392V11.944C69.1573 12.3067 68.8693 12.5893 68.528 12.792C68.1227 13.016 67.664 13.128 67.152 13.128ZM67.76 11.496C68.1013 11.496 68.3947 11.4267 68.64 11.288C68.864 11.16 69.04 10.984 69.168 10.76C69.3067 10.504 69.3813 10.1947 69.392 9.832V9.32H68.32C67.7867 9.32 67.36 9.41067 67.04 9.592C66.8373 9.70933 66.6933 9.848 66.608 10.008C66.5333 10.1467 66.4907 10.3067 66.48 10.488C66.4907 10.68 66.5333 10.84 66.608 10.968C66.6827 11.1067 66.8 11.2187 66.96 11.304C67.1733 11.432 67.44 11.496 67.76 11.496ZM73.632 13V4.52H75.44V6.024C75.504 5.85333 75.5787 5.69867 75.664 5.56C75.9093 5.13333 76.2027 4.824 76.544 4.632C76.8213 4.472 77.1413 4.392 77.504 4.392C77.8667 4.392 78.2133 4.488 78.544 4.68C78.8747 4.86133 79.1413 5.128 79.344 5.48C79.44 5.66133 79.5147 5.848 79.568 6.04L77.872 6.84C77.8187 6.62667 77.7173 6.45067 77.568 6.312C77.376 6.12 77.1467 6.024 76.88 6.024C76.6773 6.024 76.496 6.072 76.336 6.168C76.144 6.27467 75.9733 6.45067 75.824 6.696C75.568 7.144 75.44 7.74667 75.44 8.504V13H73.632ZM84.032 13.128C83.36 13.128 82.7733 12.984 82.272 12.696C81.8133 12.44 81.4453 12.072 81.168 11.592C80.8373 11.0053 80.672 10.3013 80.672 9.48V8.04C80.672 7.21867 80.8373 6.51467 81.168 5.928C81.4453 5.448 81.8133 5.08 82.272 4.824C82.7733 4.536 83.36 4.392 84.032 4.392C84.704 4.392 85.2853 4.536 85.776 4.824C86.2347 5.09067 86.6027 5.45867 86.88 5.928C87.072 6.25867 87.2053 6.616 87.28 7L85.552 7.48C85.4987 7.21333 85.4133 6.97333 85.296 6.76C85.1573 6.51467 84.976 6.328 84.752 6.2C84.5387 6.08267 84.2987 6.024 84.032 6.024C83.7547 6.024 83.5093 6.088 83.296 6.216C83.0933 6.33333 82.9227 6.50933 82.784 6.744C82.592 7.08533 82.4907 7.51733 82.48 8.04V9.48C82.4907 10.0027 82.592 10.4347 82.784 10.776C82.9227 11.0107 83.0933 11.192 83.296 11.32C83.5093 11.4373 83.7547 11.496 84.032 11.496C84.2987 11.496 84.5387 11.4373 84.752 11.32C84.976 11.192 85.1573 11.0053 85.296 10.76C85.4133 10.5467 85.4987 10.3067 85.552 10.04L87.28 10.52C87.2053 10.904 87.072 11.2613 86.88 11.592C86.6027 12.0613 86.2347 12.4293 85.776 12.696C85.2853 12.984 84.704 13.128 84.032 13.128ZM91.952 13.128C91.152 13.128 90.496 12.9787 89.984 12.68C89.536 12.424 89.1893 12.0773 88.944 11.64C88.8693 11.512 88.8053 11.3787 88.752 11.24L90.432 10.632C90.5067 10.8027 90.6027 10.9467 90.72 11.064C91.008 11.352 91.4187 11.496 91.952 11.496C92.5387 11.496 92.9547 11.368 93.2 11.112C93.328 10.984 93.3973 10.824 93.408 10.632C93.3973 10.4933 93.36 10.36 93.296 10.232C93.2 10.072 93.0667 9.944 92.896 9.848C92.6613 9.70933 92.2453 9.61333 91.648 9.56C90.944 9.496 90.4053 9.35733 90.032 9.144C89.6587 8.92 89.36 8.616 89.136 8.232C88.9013 7.82667 88.784 7.37867 88.784 6.888C88.784 6.45067 88.88 6.06667 89.072 5.736C89.2747 5.384 89.568 5.096 89.952 4.872C90.5173 4.552 91.216 4.392 92.048 4.392C92.848 4.392 93.504 4.54133 94.016 4.84C94.464 5.096 94.8107 5.44267 95.056 5.88C95.1307 6.008 95.1947 6.14133 95.248 6.28L93.568 6.888C93.4933 6.71733 93.3973 6.57333 93.28 6.456C92.992 6.168 92.5813 6.024 92.048 6.024C91.4613 6.024 91.0453 6.152 90.8 6.408C90.672 6.536 90.6027 6.696 90.592 6.888C90.6027 7.02667 90.64 7.16 90.704 7.288C90.8 7.448 90.9333 7.576 91.104 7.672C91.3387 7.81067 91.7547 7.90667 92.352 7.96C93.056 8.024 93.5947 8.168 93.968 8.392C94.3413 8.60533 94.64 8.904 94.864 9.288C95.0987 9.69333 95.216 10.1413 95.216 10.632C95.216 11.0693 95.12 11.4533 94.928 11.784C94.7253 12.136 94.432 12.424 94.048 12.648C93.4827 12.968 92.784 13.128 91.952 13.128ZM100 13.128C99.6693 13.128 99.3867 13.0587 99.152 12.92C98.9493 12.8027 98.7893 12.6427 98.672 12.44C98.5333 12.2053 98.464 11.9227 98.464 11.592C98.464 11.2613 98.5333 10.9787 98.672 10.744C98.7893 10.5413 98.9493 10.3813 99.152 10.264C99.3867 10.1253 99.6693 10.056 100 10.056C100.331 10.056 100.613 10.1253 100.848 10.264C101.051 10.3813 101.211 10.5413 101.328 10.744C101.467 10.9787 101.536 11.2613 101.536 11.592C101.536 11.9227 101.467 12.2053 101.328 12.44C101.211 12.6427 101.051 12.8027 100.848 12.92C100.613 13.0587 100.331 13.128 100 13.128ZM108 13.128C107.339 13.128 106.763 12.9893 106.272 12.712C105.813 12.4453 105.445 12.072 105.168 11.592C104.837 11.016 104.672 10.312 104.672 9.48V8.04C104.672 7.208 104.837 6.504 105.168 5.928C105.445 5.448 105.813 5.07467 106.272 4.808C106.763 4.53067 107.339 4.392 108 4.392C108.661 4.392 109.237 4.53067 109.728 4.808C110.187 5.07467 110.555 5.448 110.832 5.928C111.163 6.504 111.328 7.208 111.328 8.04V9.48C111.328 10.312 111.163 11.016 110.832 11.592C110.555 12.072 110.187 12.4453 109.728 12.712C109.237 12.9893 108.661 13.128 108 13.128ZM108 11.496C108.267 11.496 108.496 11.4373 108.688 11.32C108.901 11.2027 109.077 11.0213 109.216 10.776C109.408 10.4453 109.509 10.0133 109.52 9.48V8.04C109.509 7.50667 109.408 7.07467 109.216 6.744C109.077 6.49867 108.901 6.31733 108.688 6.2C108.496 6.08267 108.267 6.024 108 6.024C107.733 6.024 107.504 6.08267 107.312 6.2C107.099 6.31733 106.923 6.49867 106.784 6.744C106.592 7.07467 106.491 7.50667 106.48 8.04V9.48C106.491 10.0133 106.592 10.4453 106.784 10.776C106.923 11.0213 107.099 11.2027 107.312 11.32C107.504 11.4373 107.733 11.496 108 11.496ZM113.632 13V4.52H115.44V6.024C115.504 5.85333 115.579 5.69867 115.664 5.56C115.909 5.13333 116.203 4.824 116.544 4.632C116.821 4.472 117.141 4.392 117.504 4.392C117.867 4.392 118.213 4.488 118.544 4.68C118.875 4.86133 119.141 5.128 119.344 5.48C119.44 5.66133 119.515 5.848 119.568 6.04L117.872 6.84C117.819 6.62667 117.717 6.45067 117.568 6.312C117.376 6.12 117.147 6.024 116.88 6.024C116.677 6.024 116.496 6.072 116.336 6.168C116.144 6.27467 115.973 6.45067 115.824 6.696C115.568 7.144 115.44 7.74667 115.44 8.504V13H113.632ZM124 16.408C123.157 16.408 122.448 16.2427 121.872 15.912C121.445 15.6667 121.115 15.3467 120.88 14.952C120.667 14.5573 120.555 14.104 120.544 13.592C120.555 13.1227 120.656 12.7173 120.848 12.376C120.965 12.1733 121.109 11.9973 121.28 11.848C121.248 11.7947 121.216 11.7413 121.184 11.688C121.013 11.4107 120.933 11.1067 120.944 10.776C120.933 10.4347 121.024 10.104 121.216 9.784C121.291 9.656 121.381 9.53333 121.488 9.416C121.317 9.24533 121.168 9.05333 121.04 8.84C120.795 8.41333 120.672 7.90667 120.672 7.32C120.672 6.73333 120.795 6.22667 121.04 5.8C121.275 5.39467 121.6 5.07467 122.016 4.84C122.528 4.54133 123.152 4.392 123.888 4.392C124.261 4.392 124.608 4.42933 124.928 4.504L124.96 4.52H127.536V6.152L126.88 6.136C127.019 6.488 127.088 6.88267 127.088 7.32C127.088 7.90667 126.965 8.41333 126.72 8.84C126.485 9.24533 126.16 9.57067 125.744 9.816C125.232 10.104 124.613 10.248 123.888 10.248C123.451 10.248 123.051 10.2 122.688 10.104C122.603 10.2107 122.56 10.328 122.56 10.456C122.56 10.6053 122.613 10.7387 122.72 10.856C122.859 10.9947 123.12 11.0693 123.504 11.08C123.525 11.08 123.552 11.08 123.584 11.08H124.416C125.163 11.08 125.792 11.2293 126.304 11.528C126.677 11.7413 126.965 12.024 127.168 12.376C127.371 12.7173 127.472 13.1333 127.472 13.624C127.472 14.1147 127.36 14.5573 127.136 14.952C126.901 15.3467 126.571 15.6667 126.144 15.912C125.568 16.2427 124.853 16.408 124 16.408ZM123.888 8.616C124.197 8.616 124.459 8.55733 124.672 8.44C124.864 8.33333 125.008 8.18933 125.104 8.008C125.211 7.82667 125.269 7.59733 125.28 7.32C125.269 7.05333 125.211 6.82933 125.104 6.648C125.008 6.46667 124.864 6.32267 124.672 6.216C124.491 6.10933 124.272 6.04533 124.016 6.024H123.888H123.872C123.563 6.024 123.301 6.088 123.088 6.216C122.896 6.32267 122.752 6.46667 122.656 6.648C122.549 6.82933 122.491 7.05333 122.48 7.32C122.491 7.59733 122.549 7.82667 122.656 8.008C122.752 8.18933 122.896 8.33333 123.088 8.44C123.301 8.55733 123.568 8.616 123.888 8.616ZM124 14.776C124.448 14.776 124.816 14.696 125.104 14.536C125.296 14.4187 125.435 14.28 125.52 14.12C125.616 13.9707 125.659 13.8053 125.648 13.624C125.659 13.3893 125.589 13.1973 125.44 13.048C125.216 12.824 124.875 12.712 124.416 12.712H123.584H123.568H123.52C123.115 12.712 122.805 12.824 122.592 13.048C122.443 13.1867 122.368 13.368 122.368 13.592C122.368 13.784 122.411 13.96 122.496 14.12C122.592 14.2907 122.736 14.4293 122.928 14.536C123.205 14.696 123.563 14.776 124 14.776Z"/>
</svg>
