<svg width="10" height="9" viewBox="0 0 10 9" fill="none" xmlns="http://www.w3.org/2000/svg">
<path d="M8.49219 0C8.77344 0 9.00781 0.101562 9.19531 0.304688C9.39844 0.492188 9.5 0.726562 9.5 1.00781V7.99219C9.5 8.27344 9.39844 8.51562 9.19531 8.71875C9.00781 8.90625 8.77344 9 8.49219 9H1.50781C1.22656 9 0.984375 8.90625 0.78125 8.71875C0.59375 8.51562 0.5 8.27344 0.5 7.99219V1.00781C0.5 0.726562 0.59375 0.492188 0.78125 0.304688C0.984375 0.101562 1.22656 0 1.50781 0H8.49219ZM8.25781 7.75781V5.10938C8.25781 4.65625 8.09375 4.27344 7.76562 3.96094C7.45312 3.63281 7.07031 3.46875 6.61719 3.46875C6.39844 3.46875 6.17969 3.53125 5.96094 3.65625C5.74219 3.78125 5.57812 3.9375 5.46875 4.125V3.5625H4.0625V7.75781H5.46875V5.27344C5.46875 5.08594 5.53125 4.92969 5.65625 4.80469C5.79688 4.66406 5.96094 4.59375 6.14844 4.59375C6.35156 4.59375 6.51562 4.66406 6.64062 4.80469C6.78125 4.92969 6.85156 5.08594 6.85156 5.27344V7.75781H8.25781ZM2.44531 2.78906C2.67969 2.78906 2.875 2.71094 3.03125 2.55469C3.20312 2.38281 3.28906 2.17969 3.28906 1.94531C3.28906 1.71094 3.20312 1.51562 3.03125 1.35938C2.875 1.1875 2.67969 1.10156 2.44531 1.10156C2.21094 1.10156 2.00781 1.1875 1.83594 1.35938C1.67969 1.51562 1.60156 1.71094 1.60156 1.94531C1.60156 2.17969 1.67969 2.38281 1.83594 2.55469C2.00781 2.71094 2.21094 2.78906 2.44531 2.78906ZM3.125 7.75781V3.5625H1.74219V7.75781H3.125Z" />
</svg>
