<svg width="10" height="11" viewBox="0 0 10 11" fill="none" xmlns="http://www.w3.org/2000/svg">
<path d="M7.17969 6.50781C7.22656 6.11719 7.25 5.78125 7.25 5.5C7.25 5.21875 7.22656 4.88281 7.17969 4.49219H8.86719C8.96094 4.85156 9.00781 5.1875 9.00781 5.5C9.00781 5.8125 8.96094 6.14844 8.86719 6.50781H7.17969ZM6.28906 9.27344C6.58594 8.72656 6.82031 8.13281 6.99219 7.49219H8.46875C8.21875 7.91406 7.90625 8.28125 7.53125 8.59375C7.17188 8.89062 6.75781 9.11719 6.28906 9.27344ZM6.17188 6.50781H3.82812C3.78125 6.14844 3.75781 5.8125 3.75781 5.5C3.75781 5.1875 3.78125 4.85156 3.82812 4.49219H6.17188C6.21875 4.88281 6.24219 5.21875 6.24219 5.5C6.24219 5.78125 6.21875 6.11719 6.17188 6.50781ZM5 9.48438C4.5625 8.84375 4.24219 8.17969 4.03906 7.49219H5.96094C5.75781 8.17969 5.4375 8.84375 5 9.48438ZM3.00781 3.50781H1.53125C1.78125 3.08594 2.08594 2.72656 2.44531 2.42969C2.82031 2.11719 3.24219 1.88281 3.71094 1.72656C3.42969 2.24219 3.19531 2.83594 3.00781 3.50781ZM1.53125 7.49219H3.00781C3.19531 8.16406 3.42969 8.75781 3.71094 9.27344C3.24219 9.11719 2.82031 8.89062 2.44531 8.59375C2.08594 8.28125 1.78125 7.91406 1.53125 7.49219ZM1.13281 6.50781C1.03906 6.14844 0.992188 5.8125 0.992188 5.5C0.992188 5.1875 1.03906 4.85156 1.13281 4.49219H2.82031C2.77344 4.88281 2.75 5.21875 2.75 5.5C2.75 5.78125 2.77344 6.11719 2.82031 6.50781H1.13281ZM5 1.51562C5.4375 2.15625 5.75781 2.82031 5.96094 3.50781H4.03906C4.24219 2.82031 4.5625 2.15625 5 1.51562ZM8.46875 3.50781H6.99219C6.82031 2.86719 6.58594 2.27344 6.28906 1.72656C6.75781 1.88281 7.17188 2.11719 7.53125 2.42969C7.90625 2.72656 8.21875 3.08594 8.46875 3.50781ZM5 0.507812C4.09375 0.507812 3.25781 0.734375 2.49219 1.1875C1.72656 1.625 1.11719 2.22656 0.664062 2.99219C0.226562 3.75781 0.0078125 4.59375 0.0078125 5.5C0.0078125 6.15625 0.132812 6.79688 0.382812 7.42188C0.632812 8.03125 0.992188 8.57031 1.46094 9.03906C1.92969 9.50781 2.46875 9.86719 3.07812 10.1172C3.70312 10.3672 4.34375 10.4922 5 10.4922C5.65625 10.4922 6.28906 10.3672 6.89844 10.1172C7.52344 9.86719 8.07031 9.50781 8.53906 9.03906C9.00781 8.57031 9.36719 8.03125 9.61719 7.42188C9.86719 6.79688 9.99219 6.15625 9.99219 5.5C9.99219 4.84375 9.86719 4.21094 9.61719 3.60156C9.36719 2.97656 9.00781 2.42969 8.53906 1.96094C8.07031 1.49219 7.52344 1.13281 6.89844 0.882812C6.28906 0.632812 5.65625 0.507812 5 0.507812Z"/>
</svg>
