<svg width="150" height="150" viewBox="0 0 150 150" fill="none" xmlns="http://www.w3.org/2000/svg">
<path d="M28.144 79.008C39.592 79.008 44.632 70.8 44.632 60.792V24.72H33.976V59.928C33.976 67.272 31.528 69.792 26.848 69.792C23.824 69.792 21.016 68.136 18.928 64.248L11.584 69.648C15.184 75.84 20.368 79.008 28.144 79.008Z"/>
<path d="M66.5459 79.008C71.1539 79.008 75.1859 76.704 78.7139 73.68H78.9299L79.7219 78H88.3619V54.456C88.3619 42.792 83.1059 36.672 72.8819 36.672C66.5459 36.672 60.7859 39.048 56.0339 42L59.8499 48.984C63.5939 46.824 67.1939 45.168 70.9379 45.168C75.9059 45.168 77.6339 48.192 77.7779 52.152C61.5779 53.88 54.5939 58.416 54.5939 67.056C54.5939 73.896 59.3459 79.008 66.5459 79.008ZM70.0019 70.728C66.9059 70.728 64.6739 69.36 64.6739 66.192C64.6739 62.592 67.9859 59.928 77.7779 58.632V66.768C75.2579 69.288 73.0259 70.728 70.0019 70.728Z"/>
<path d="M99.1489 78H109.661V50.28C112.685 47.328 114.773 45.744 118.085 45.744C122.045 45.744 123.773 47.976 123.773 54.168V78H134.357V52.872C134.357 42.72 130.613 36.672 121.901 36.672C116.429 36.672 112.325 39.552 108.797 43.008H108.509L107.789 37.68H99.1489V78Z"/>
<path d="M95 107H55L75 127L95 107Z"/>
</svg>
