<svg width="150" height="150" viewBox="0 0 150 150" fill="none" xmlns="http://www.w3.org/2000/svg">
<path d="M20.168 40.856V48.416H52.712V76.568H62.072V40.856H20.168Z"/>
<path d="M107.642 73.256C103.25 73.256 99.9384 71.6 99.9384 68.288C99.9384 64.976 103.25 63.32 107.642 63.32C111.962 63.32 115.346 64.976 115.346 68.288C115.346 71.6 111.962 73.256 107.642 73.256ZM107.642 55.328C97.6344 55.328 90.2184 60.728 90.2184 68.288C90.2184 75.848 97.6344 81.248 107.642 81.248C117.65 81.248 124.994 75.848 124.994 68.288C124.994 60.728 117.65 55.328 107.642 55.328ZM112.394 44.24V36.032H102.89V44.24H85.6824V51.944H129.386V44.24H112.394Z"/>
<path d="M94 106H54L74 126L94 106Z"/>
</svg>
