<svg width="10" height="7" viewBox="0 0 10 7" fill="none" xmlns="http://www.w3.org/2000/svg">
<path d="M8.79688 3.64062C8.76562 3.32812 8.65625 3.09375 8.46875 2.9375C8.29688 2.76562 8.0625 2.67969 7.76562 2.67969C7.46875 2.67969 7.24219 2.76562 7.08594 2.9375C6.92969 3.10938 6.82812 3.34375 6.78125 3.64062H8.79688ZM9.96875 3.52344C9.98438 3.66406 9.99219 3.96094 9.99219 4.41406H6.75781C6.77344 4.85156 6.92969 5.16406 7.22656 5.35156C7.39844 5.46094 7.60938 5.51562 7.85938 5.51562C8.125 5.51562 8.33594 5.44531 8.49219 5.30469C8.60156 5.24219 8.6875 5.14062 8.75 5H9.94531C9.91406 5.26562 9.76562 5.53906 9.5 5.82031C9.10938 6.24219 8.55469 6.45312 7.83594 6.45312C7.24219 6.45312 6.71875 6.27344 6.26562 5.91406C5.8125 5.53906 5.58594 4.94531 5.58594 4.13281C5.58594 3.35156 5.78906 2.75781 6.19531 2.35156C6.60156 1.92969 7.13281 1.71875 7.78906 1.71875C8.17969 1.71875 8.53125 1.79688 8.84375 1.95312C9.15625 2.09375 9.40625 2.3125 9.59375 2.60938C9.78125 2.85938 9.90625 3.16406 9.96875 3.52344ZM3.78125 4.53125C3.78125 4.20312 3.65625 3.98438 3.40625 3.875C3.26562 3.8125 3.05469 3.77344 2.77344 3.75781H1.4375V5.42188H2.75C3.01562 5.42188 3.22656 5.38281 3.38281 5.30469C3.64844 5.17969 3.78125 4.92188 3.78125 4.53125ZM1.4375 2.72656H2.75C3.03125 2.72656 3.25 2.67969 3.40625 2.58594C3.57812 2.47656 3.66406 2.28906 3.66406 2.02344C3.66406 1.74219 3.55469 1.55469 3.33594 1.46094C3.14844 1.39844 2.89844 1.36719 2.58594 1.36719H1.4375V2.72656ZM4.85938 3.71094C5.01562 3.96094 5.09375 4.26562 5.09375 4.625C5.09375 4.96875 5.00781 5.29688 4.83594 5.60938C4.71094 5.79688 4.5625 5.96094 4.39062 6.10156C4.17188 6.25781 3.92969 6.36719 3.66406 6.42969C3.39844 6.47656 3.10938 6.5 2.79688 6.5H0.0078125V0.265625H3.00781C3.77344 0.28125 4.3125 0.507812 4.625 0.945312C4.8125 1.21094 4.90625 1.53125 4.90625 1.90625C4.90625 2.28125 4.8125 2.57812 4.625 2.79688C4.5 2.9375 4.33594 3.05469 4.13281 3.14844C4.44531 3.27344 4.6875 3.46094 4.85938 3.71094ZM9.03125 1.15625H6.52344V0.523438H9.03125V1.15625Z"/>
</svg>
