<svg width="813" height="194" viewBox="0 0 813 194" fill="none" xmlns="http://www.w3.org/2000/svg">
<rect y="103" width="700" height="91" fill="#2F2F2F"/>
<path d="M29.3208 121.021L48.4557 151.344L67.6678 121.021H72.0658L50.4618 155.124V175.802H46.5268V154.97L25 121.021H29.3208Z" fill="white"/>
<path d="M98.8091 176.188C95.0027 176.188 91.5307 175.391 88.3929 173.796C85.2552 172.202 82.5547 170.118 80.2914 167.546C78.0282 164.975 76.2793 162.017 75.0448 158.673C73.8103 155.33 73.193 151.909 73.193 148.412C73.193 144.759 73.836 141.262 75.1219 137.918C76.4593 134.575 78.2596 131.617 80.5229 129.045C82.8376 126.473 85.5638 124.441 88.7016 122.95C91.8393 121.407 95.2342 120.635 98.8863 120.635C102.693 120.635 106.165 121.458 109.302 123.104C112.492 124.699 115.192 126.808 117.404 129.431C119.667 132.054 121.416 135.038 122.651 138.381C123.885 141.673 124.502 145.017 124.502 148.412C124.502 152.115 123.834 155.639 122.496 158.982C121.21 162.326 119.41 165.283 117.095 167.855C114.832 170.376 112.132 172.407 108.994 173.951C105.856 175.442 102.461 176.188 98.8091 176.188ZM77.128 148.412C77.128 151.549 77.6424 154.584 78.6712 157.516C79.7513 160.397 81.2431 162.969 83.1463 165.232C85.1009 167.444 87.4156 169.218 90.0904 170.556C92.7652 171.893 95.6971 172.562 98.8863 172.562C102.178 172.562 105.136 171.867 107.759 170.478C110.434 169.09 112.697 167.264 114.549 165C116.452 162.686 117.918 160.088 118.947 157.207C119.976 154.327 120.49 151.395 120.49 148.412C120.49 145.274 119.95 142.265 118.87 139.384C117.79 136.452 116.272 133.88 114.318 131.668C112.414 129.405 110.151 127.605 107.528 126.267C104.905 124.93 102.024 124.261 98.8863 124.261C95.5943 124.261 92.6109 124.956 89.9361 126.345C87.2613 127.733 84.9723 129.585 83.0691 131.9C81.1659 134.163 79.6999 136.735 78.6712 139.616C77.6424 142.496 77.128 145.428 77.128 148.412Z" fill="white"/>
<path d="M157.057 172.562C160.761 172.562 163.821 171.867 166.239 170.478C168.708 169.09 170.637 167.264 172.026 165C173.466 162.737 174.469 160.165 175.035 157.285C175.652 154.404 175.961 151.498 175.961 148.566V121.021H179.896V148.566C179.896 152.218 179.484 155.716 178.661 159.059C177.89 162.403 176.604 165.36 174.803 167.932C173.003 170.453 170.663 172.459 167.782 173.951C164.902 175.442 161.352 176.188 157.134 176.188C152.762 176.188 149.11 175.417 146.178 173.873C143.246 172.279 140.88 170.196 139.08 167.624C137.331 165 136.071 162.043 135.299 158.751C134.579 155.459 134.219 152.064 134.219 148.566V121.021H138.154V148.566C138.154 151.601 138.437 154.558 139.003 157.439C139.62 160.319 140.649 162.891 142.089 165.155C143.58 167.366 145.535 169.167 147.953 170.556C150.37 171.893 153.405 172.562 157.057 172.562Z" fill="white"/>
<path d="M228.314 170.093C229.6 170.967 231.143 171.687 232.944 172.253C234.744 172.767 236.75 173.025 238.962 173.025C241.945 173.025 244.311 172.485 246.06 171.404C247.809 170.324 249.147 168.755 250.072 166.698C250.998 164.64 251.59 162.12 251.847 159.136C252.156 156.102 252.31 152.681 252.31 148.874V121.021H256.245V148.874C256.245 153.041 256.065 156.847 255.705 160.294C255.345 163.689 254.548 166.595 253.313 169.012C252.13 171.43 250.407 173.308 248.144 174.645C245.88 175.982 242.82 176.651 238.962 176.651C234.332 176.651 230.372 175.519 227.08 173.256L228.314 170.093Z" fill="white"/>
<path d="M293.399 172.562C297.103 172.562 300.163 171.867 302.581 170.478C305.05 169.09 306.979 167.264 308.368 165C309.808 162.737 310.811 160.165 311.377 157.285C311.994 154.404 312.303 151.498 312.303 148.566V121.021H316.238V148.566C316.238 152.218 315.826 155.716 315.003 159.059C314.232 162.403 312.946 165.36 311.145 167.932C309.345 170.453 307.005 172.459 304.124 173.951C301.243 175.442 297.694 176.188 293.476 176.188C289.104 176.188 285.452 175.417 282.52 173.873C279.588 172.279 277.222 170.196 275.422 167.624C273.673 165 272.412 162.043 271.641 158.751C270.921 155.459 270.561 152.064 270.561 148.566V121.021H274.496V148.566C274.496 151.601 274.779 154.558 275.344 157.439C275.962 160.319 276.99 162.891 278.431 165.155C279.922 167.366 281.877 169.167 284.295 170.556C286.712 171.893 289.747 172.562 293.399 172.562Z" fill="white"/>
<path d="M363.138 130.125C359.589 126.165 354.574 124.184 348.093 124.184C342.743 124.184 338.834 125.213 336.365 127.271C333.947 129.277 332.738 132.003 332.738 135.449C332.738 137.198 333.047 138.664 333.664 139.847C334.281 140.979 335.233 141.956 336.519 142.779C337.856 143.602 339.528 144.297 341.534 144.862C343.54 145.428 345.958 146.02 348.787 146.637C351.719 147.254 354.368 147.949 356.734 148.72C359.152 149.44 361.184 150.366 362.83 151.498C364.527 152.629 365.813 154.018 366.687 155.664C367.613 157.31 368.076 159.342 368.076 161.76C368.076 164.177 367.588 166.286 366.61 168.087C365.684 169.887 364.347 171.404 362.598 172.639C360.901 173.822 358.843 174.722 356.426 175.339C354.059 175.957 351.41 176.265 348.478 176.265C339.94 176.265 332.713 173.539 326.797 168.087L328.881 164.923C331.195 167.341 334.024 169.27 337.368 170.71C340.711 172.099 344.466 172.793 348.633 172.793C353.416 172.793 357.146 171.919 359.82 170.17C362.547 168.421 363.91 165.772 363.91 162.223C363.91 160.422 363.55 158.905 362.83 157.67C362.109 156.384 361.029 155.279 359.589 154.353C358.2 153.427 356.426 152.629 354.265 151.961C352.105 151.292 349.584 150.649 346.704 150.032C343.772 149.415 341.174 148.772 338.911 148.103C336.699 147.383 334.822 146.508 333.278 145.48C331.787 144.399 330.655 143.113 329.884 141.622C329.112 140.13 328.726 138.253 328.726 135.989C328.726 133.52 329.189 131.334 330.115 129.431C331.092 127.528 332.43 125.933 334.127 124.647C335.825 123.31 337.856 122.307 340.223 121.638C342.589 120.969 345.212 120.635 348.093 120.635C351.642 120.635 354.805 121.175 357.583 122.255C360.361 123.284 362.881 124.879 365.144 127.039L363.138 130.125Z" fill="white"/>
<path d="M417.425 124.57H397.364V175.802H393.429V124.57H373.368V121.021H417.425V124.57Z" fill="white"/>
<path d="M468.91 165C471.071 165 472.897 164.563 474.388 163.689C475.88 162.763 477.089 161.554 478.015 160.062C478.941 158.571 479.584 156.873 479.944 154.97C480.355 153.015 480.561 151.035 480.561 149.029V121.021H493.215V149.029C493.215 152.835 492.726 156.384 491.749 159.676C490.823 162.969 489.357 165.849 487.351 168.318C485.396 170.787 482.876 172.742 479.789 174.182C476.755 175.571 473.128 176.265 468.91 176.265C464.538 176.265 460.809 175.519 457.723 174.028C454.636 172.536 452.116 170.556 450.161 168.087C448.258 165.566 446.843 162.66 445.917 159.368C445.043 156.076 444.606 152.629 444.606 149.029V121.021H457.26V149.029C457.26 151.138 457.465 153.144 457.877 155.047C458.288 156.95 458.957 158.648 459.883 160.139C460.809 161.631 461.992 162.814 463.432 163.689C464.924 164.563 466.75 165 468.91 165Z" fill="white"/>
<path d="M535.888 137.069C535.734 136.864 535.194 136.478 534.268 135.912C533.342 135.346 532.184 134.755 530.796 134.137C529.407 133.52 527.889 132.98 526.243 132.517C524.597 132.054 522.951 131.823 521.305 131.823C516.779 131.823 514.515 133.34 514.515 136.375C514.515 137.301 514.747 138.073 515.21 138.69C515.724 139.307 516.444 139.873 517.37 140.387C518.348 140.85 519.556 141.287 520.997 141.699C522.437 142.11 524.109 142.573 526.012 143.088C528.635 143.808 531.001 144.605 533.11 145.48C535.219 146.303 536.994 147.357 538.434 148.643C539.926 149.878 541.058 151.395 541.829 153.195C542.652 154.996 543.064 157.156 543.064 159.676C543.064 162.763 542.472 165.386 541.289 167.546C540.157 169.655 538.64 171.379 536.737 172.716C534.834 174.002 532.647 174.954 530.178 175.571C527.709 176.137 525.163 176.42 522.54 176.42C520.534 176.42 518.476 176.265 516.367 175.957C514.258 175.648 512.201 175.211 510.195 174.645C508.189 174.028 506.234 173.308 504.331 172.485C502.479 171.662 500.756 170.71 499.161 169.63L504.717 158.596C504.922 158.853 505.591 159.342 506.723 160.062C507.854 160.782 509.243 161.503 510.889 162.223C512.587 162.943 514.464 163.586 516.522 164.152C518.579 164.717 520.662 165 522.771 165C527.246 165 529.484 163.637 529.484 160.911C529.484 159.882 529.15 159.033 528.481 158.365C527.812 157.696 526.886 157.105 525.703 156.59C524.52 156.024 523.106 155.51 521.46 155.047C519.865 154.584 518.116 154.07 516.213 153.504C513.692 152.732 511.506 151.909 509.655 151.035C507.803 150.109 506.26 149.055 505.025 147.871C503.842 146.688 502.942 145.325 502.325 143.782C501.759 142.239 501.476 140.439 501.476 138.381C501.476 135.501 502.016 132.954 503.096 130.743C504.176 128.531 505.642 126.679 507.494 125.187C509.346 123.644 511.481 122.487 513.898 121.715C516.367 120.944 518.965 120.558 521.691 120.558C523.594 120.558 525.472 120.738 527.324 121.098C529.175 121.458 530.95 121.921 532.647 122.487C534.345 123.053 535.914 123.696 537.354 124.416C538.846 125.136 540.209 125.856 541.443 126.576L535.888 137.069Z" fill="white"/>
<path d="M588.99 164.692V175.802H550.489V121.021H588.296V132.131H563.142V142.779H584.746V153.041H563.142V164.692H588.99Z" fill="white"/>
<path d="M618.423 175.802V121.021H622.358V175.802H618.423Z" fill="white"/>
<path d="M675.003 124.57H654.942V175.802H651.007V124.57H630.946V121.021H675.003V124.57Z" fill="white"/>
<rect width="812.49" height="90.8203" fill="#2F2F2F"/>
<path d="M84.005 18.5305H87.8628L96.0415 38.4371L104.22 18.5305H108.078L98.4333 41.6005L109.93 68.2968L130.916 18.1448H135.237L111.781 72.9263H108.155L96.1186 44.7639L84.005 72.9263H80.3786L57 18.1448H61.2436L82.3075 68.2968L93.6496 41.6005L84.005 18.5305Z" fill="white"/>
<path d="M179.986 69.377V72.9263H143.491V18.1448H179.291V21.694H147.426V43.2208H175.279V46.6157H147.426V69.377H179.986Z" fill="white"/>
<path d="M260.163 72.9263V25.5518L238.559 62.5101H236.09L214.486 25.5518V72.9263H210.551V18.1448H214.486L237.324 57.3405L260.163 18.1448H264.098V72.9263H260.163Z" fill="white"/>
<path d="M295.646 18.1448H299.041L322.188 72.9263H318.022L310.383 54.8715H284.227L276.588 72.9263H272.345L295.646 18.1448ZM309.303 51.6309L297.344 22.9285L285.153 51.6309H309.303Z" fill="white"/>
<path d="M330.506 72.9263V18.1448H334.441V51.3994L366.384 18.1448H370.936L348.175 42.1406L372.094 72.9263H367.619L345.629 44.5325L334.441 56.0289V72.9263H330.506Z" fill="white"/>
<path d="M415.978 69.377V72.9263H379.483V18.1448H415.283V21.694H383.418V43.2208H411.271V46.6157H383.418V69.377H415.978Z" fill="white"/>
<path d="M477.483 34.1934C477.329 33.9877 476.788 33.6019 475.863 33.0361C474.937 32.4703 473.779 31.8787 472.391 31.2615C471.002 30.6442 469.484 30.1041 467.838 29.6412C466.192 29.1782 464.546 28.9467 462.9 28.9467C458.374 28.9467 456.11 30.4642 456.11 33.499C456.11 34.4249 456.342 35.1965 456.805 35.8137C457.319 36.431 458.039 36.9968 458.965 37.5112C459.943 37.9741 461.151 38.4113 462.592 38.8228C464.032 39.2344 465.704 39.6973 467.607 40.2117C470.23 40.9318 472.596 41.7291 474.705 42.6035C476.814 43.4266 478.589 44.481 480.029 45.767C481.521 47.0015 482.652 48.5189 483.424 50.3192C484.247 52.1196 484.658 54.28 484.658 56.8004C484.658 59.8867 484.067 62.5101 482.884 64.6705C481.752 66.7794 480.235 68.5026 478.332 69.84C476.428 71.1259 474.242 72.0775 471.773 72.6948C469.304 73.2606 466.758 73.5435 464.135 73.5435C462.129 73.5435 460.071 73.3892 457.962 73.0806C455.853 72.7719 453.796 72.3347 451.79 71.7689C449.784 71.1516 447.829 70.4315 445.926 69.6085C444.074 68.7855 442.351 67.8339 440.756 66.7537L446.311 55.7202C446.517 55.9774 447.186 56.4661 448.318 57.1862C449.449 57.9064 450.838 58.6265 452.484 59.3466C454.181 60.0667 456.059 60.7097 458.116 61.2755C460.174 61.8414 462.257 62.1243 464.366 62.1243C468.841 62.1243 471.079 60.7612 471.079 58.0349C471.079 57.0062 470.745 56.1575 470.076 55.4888C469.407 54.8201 468.481 54.2285 467.298 53.7142C466.115 53.1483 464.701 52.634 463.055 52.171C461.46 51.7081 459.711 51.1937 457.808 50.6279C455.287 49.8563 453.101 49.0333 451.25 48.1588C449.398 47.233 447.855 46.1785 446.62 44.9954C445.437 43.8123 444.537 42.4492 443.92 40.9061C443.354 39.3629 443.071 37.5626 443.071 35.5051C443.071 32.6246 443.611 30.0784 444.691 27.8665C445.771 25.6547 447.237 23.8029 449.089 22.3112C450.941 20.7681 453.076 19.6107 455.493 18.8392C457.962 18.0676 460.56 17.6818 463.286 17.6818C465.189 17.6818 467.067 17.8619 468.918 18.2219C470.77 18.582 472.545 19.0449 474.242 19.6107C475.94 20.1766 477.509 20.8195 478.949 21.5397C480.441 22.2598 481.804 22.9799 483.038 23.7001L477.483 34.1934Z" fill="white"/>
<path d="M530.585 61.8156V72.9263H492.084V18.1448H529.891V29.2554H504.737V39.903H526.341V50.1649H504.737V61.8156H530.585Z" fill="white"/>
<path d="M538.272 72.9263V18.1448H562.963C565.535 18.1448 567.901 18.6849 570.061 19.7651C572.273 20.8453 574.176 22.2598 575.771 24.0087C577.365 25.7576 578.6 27.738 579.474 29.9498C580.4 32.1616 580.863 34.3992 580.863 36.6625C580.863 38.3599 580.657 40.0059 580.246 41.6005C579.834 43.1436 579.243 44.6096 578.471 45.9985C577.7 47.3873 576.748 48.6475 575.616 49.7791C574.536 50.8593 573.302 51.7852 571.913 52.5568L583.949 72.9263H569.675L559.182 55.2573H550.926V72.9263H538.272ZM550.926 44.2238H562.5C563.991 44.2238 565.277 43.5294 566.358 42.1406C567.438 40.7003 567.978 38.8743 567.978 36.6625C567.978 34.3992 567.361 32.5988 566.126 31.2615C564.892 29.9241 563.554 29.2554 562.114 29.2554H550.926V44.2238Z" fill="white"/>
<path d="M596.628 18.1448L609.513 57.0319L622.244 18.1448H635.592L614.837 72.9263H604.189L583.202 18.1448H596.628Z" fill="white"/>
<path d="M640.671 72.9263V18.1448H653.325V72.9263H640.671Z" fill="white"/>
<path d="M660.64 45.0726C660.64 41.7805 661.257 38.5142 662.492 35.2736C663.726 31.9816 665.526 29.0496 667.893 26.4777C670.259 23.9058 673.139 21.8226 676.534 20.228C679.929 18.6334 683.787 17.8361 688.108 17.8361C693.252 17.8361 697.701 18.9421 701.456 21.1539C705.262 23.3657 708.091 26.2463 709.943 29.7955L700.221 36.5853C699.604 35.145 698.807 33.962 697.83 33.0361C696.904 32.0587 695.875 31.2872 694.743 30.7214C693.612 30.1041 692.454 29.6926 691.271 29.4868C690.088 29.2297 688.931 29.1011 687.799 29.1011C685.382 29.1011 683.273 29.5897 681.472 30.567C679.672 31.5444 678.18 32.8046 676.997 34.3477C675.814 35.8909 674.94 37.6398 674.374 39.5944C673.808 41.5491 673.525 43.5294 673.525 45.5355C673.525 47.6959 673.859 49.7791 674.528 51.7852C675.197 53.7913 676.148 55.5659 677.383 57.1091C678.669 58.6522 680.186 59.8867 681.935 60.8126C683.735 61.687 685.742 62.1243 687.953 62.1243C689.085 62.1243 690.242 61.9957 691.425 61.7385C692.66 61.4299 693.817 60.9926 694.898 60.4268C696.029 59.8096 697.058 59.038 697.984 58.1121C698.91 57.1348 699.656 55.9517 700.221 54.5629L710.56 60.6583C709.737 62.6644 708.503 64.4647 706.857 66.0593C705.262 67.6539 703.411 68.9912 701.302 70.0714C699.193 71.1516 696.955 71.9747 694.589 72.5405C692.223 73.1063 689.908 73.3892 687.645 73.3892C683.684 73.3892 680.032 72.5919 676.688 70.9973C673.396 69.3513 670.542 67.1909 668.124 64.5161C665.758 61.8414 663.906 58.8065 662.569 55.4116C661.283 52.0167 660.64 48.5704 660.64 45.0726Z" fill="white"/>
<path d="M755.425 61.8156V72.9263H716.924V18.1448H754.731V29.2554H729.578V39.903H751.182V50.1649H729.578V61.8156H755.425Z" fill="white"/>
</svg>
