<svg width="122" height="53" viewBox="0 0 122 53" fill="none" xmlns="http://www.w3.org/2000/svg">
<path d="M26.504 35.296V5.812C26.504 5.5 26.516 5.188 26.54 4.876C26.564 4.564 26.6 4.24 26.648 3.904L2.924 35.296H26.504ZM38.312 35.296V36.196C38.312 36.604 38.072 36.808 37.592 36.808H28.196V52H26.504V36.808H1.844C1.556 36.808 1.352 36.76 1.232 36.664C1.112 36.568 1.028 36.436 0.98 36.268L0.8 35.404L26.684 1.312H28.196V35.296H38.312ZM79.6456 26.692C79.6456 31.132 79.1656 34.972 78.2056 38.212C77.2696 41.452 75.9856 44.128 74.3536 46.24C72.7216 48.352 70.8136 49.924 68.6296 50.956C66.4456 51.988 64.1176 52.504 61.6456 52.504C59.1736 52.504 56.8456 51.988 54.6616 50.956C52.4776 49.924 50.5696 48.352 48.9376 46.24C47.3056 44.128 46.0096 41.452 45.0496 38.212C44.1136 34.972 43.6456 31.132 43.6456 26.692C43.6456 22.276 44.1136 18.448 45.0496 15.208C46.0096 11.944 47.3056 9.244 48.9376 7.108C50.5696 4.972 52.4776 3.388 54.6616 2.356C56.8456 1.324 59.1736 0.807998 61.6456 0.807998C64.1176 0.807998 66.4456 1.324 68.6296 2.356C70.8136 3.388 72.7216 4.972 74.3536 7.108C75.9856 9.244 77.2696 11.944 78.2056 15.208C79.1656 18.448 79.6456 22.276 79.6456 26.692ZM77.6656 26.692C77.6656 22.444 77.2336 18.796 76.3696 15.748C75.5296 12.676 74.3776 10.156 72.9136 8.188C71.4496 6.196 69.7456 4.732 67.8016 3.796C65.8576 2.86 63.8056 2.392 61.6456 2.392C59.4616 2.392 57.3976 2.86 55.4536 3.796C53.5096 4.732 51.8056 6.196 50.3416 8.188C48.8776 10.156 47.7136 12.676 46.8496 15.748C45.9856 18.796 45.5536 22.444 45.5536 26.692C45.5536 30.94 45.9856 34.6 46.8496 37.672C47.7136 40.72 48.8776 43.228 50.3416 45.196C51.8056 47.14 53.5096 48.58 55.4536 49.516C57.3976 50.452 59.4616 50.92 61.6456 50.92C63.8056 50.92 65.8576 50.452 67.8016 49.516C69.7456 48.58 71.4496 47.14 72.9136 45.196C74.3776 43.228 75.5296 40.72 76.3696 37.672C77.2336 34.6 77.6656 30.94 77.6656 26.692ZM110.035 35.296V5.812C110.035 5.5 110.047 5.188 110.071 4.876C110.095 4.564 110.131 4.24 110.179 3.904L86.4553 35.296H110.035ZM121.843 35.296V36.196C121.843 36.604 121.603 36.808 121.123 36.808H111.727V52H110.035V36.808H85.3753C85.0873 36.808 84.8833 36.76 84.7633 36.664C84.6433 36.568 84.5593 36.436 84.5113 36.268L84.3313 35.404L110.215 1.312H111.727V35.296H121.843Z"/>
</svg>
